<svg xmlns="http://www.w3.org/2000/svg" xmlns:svg="http://www.w3.org/2000/svg" id="svg2" width="744.094" height="1052.362" version="1.1"><defs id="defs4"><marker style="overflow:visible" id="Arrow2Send" orient="auto" refX="0" refY="0"><path style="font-size:12;fill-rule:evenodd;stroke-width:.625;stroke-linejoin:round" id="path3716" d="M 8.7185878,4.0337352 L -2.2072895,0.016013256 L 8.7185884,-4.0017078 C 6.9730900,-1.6296469 6.9831476,1.6157441 8.7185878,4.0337352 z" transform="scale(0.3) rotate(180) translate(-2.3,0)"/></marker><marker style="overflow:visible" id="Arrow2Lend" orient="auto" refX="0" refY="0"><path style="font-size:12;fill-rule:evenodd;stroke-width:.625;stroke-linejoin:round" id="path3704" d="M 8.7185878,4.0337352 L -2.2072895,0.016013256 L 8.7185884,-4.0017078 C 6.9730900,-1.6296469 6.9831476,1.6157441 8.7185878,4.0337352 z" transform="scale(1.1) rotate(180) translate(1,0)"/></marker><marker style="overflow:visible" id="Arrow1Mend" orient="auto" refX="0" refY="0"><path style="fill-rule:evenodd;stroke:#000;stroke-width:1pt;marker-start:none" id="path3713" d="M 0.0,0.0 L 5.0,-5.0 L -12.5,0.0 L 5.0,5.0 L 0.0,0.0 z" transform="scale(0.4) rotate(180) translate(10,0)"/></marker><marker style="overflow:visible" id="Arrow1Lend" orient="auto" refX="0" refY="0"><path style="fill-rule:evenodd;stroke:#000;stroke-width:1pt;marker-start:none" id="path3707" d="M 0.0,0.0 L 5.0,-5.0 L -12.5,0.0 L 5.0,5.0 L 0.0,0.0 z" transform="scale(0.8) rotate(180) translate(12.5,0)"/></marker><marker style="overflow:visible" id="Arrow1Mend-2" orient="auto" refX="0" refY="0"><path style="fill-rule:evenodd;stroke:#000;stroke-width:1pt;marker-start:none" id="path3713-9" d="M 0,0 5,-5 -12.5,0 5,5 0,0 z" transform="matrix(-0.4,0,0,-0.4,-4,0)"/></marker><marker style="overflow:visible" id="Arrow1Mend-1" orient="auto" refX="0" refY="0"><path style="fill-rule:evenodd;stroke:#000;stroke-width:1pt;marker-start:none" id="path3713-1" d="M 0,0 5,-5 -12.5,0 5,5 0,0 z" transform="matrix(-0.4,0,0,-0.4,-4,0)"/></marker></defs><metadata id="metadata7"/><g id="layer1"><rect id="rect2822" width="58.571" height="40" x="88.571" y="106.648" ry="11.429" style="fill:none"/><rect id="rect2824" width="31.429" height="37.143" x="85.714" y="103.791" ry="11.429" style="fill:none"/><rect id="rect2826-8" width="38.571" height="31.429" x="205.964" y="76.898" ry="11.429" style="fill:none"/><rect id="rect2826-85" width="38.571" height="31.429" x="277.393" y="74.041" ry="11.429" style="fill:none"/><rect id="rect2826-84" width="38.571" height="31.429" x="359.286" y="42.612" ry="11.429" style="fill:none"/><text id="text5075" x="165" y="72.362" xml:space="preserve" style="font-size:16px;font-style:normal;font-variant:normal;font-weight:400;font-stretch:normal;text-align:start;line-height:125%;writing-mode:lr-tb;text-anchor:start;fill:#000;fill-opacity:1;stroke:none;font-family:Droid Serif;-inkscape-font-specification:Droid Serif"><tspan id="tspan2897" x="165" y="72.362">Newsqueak</tspan></text><path id="path2894" d="m 20,27.362183 c 365.8,0 465,0 465,0" style="fill:none;stroke:#000;stroke-width:4.27668095px;stroke-linecap:butt;stroke-linejoin:miter;stroke-opacity:1;marker-start:none;marker-end:url(#Arrow1Mend)"/><text id="text5075-5" x="265" y="72.362" xml:space="preserve" style="font-size:16px;font-style:normal;font-variant:normal;font-weight:400;font-stretch:normal;text-align:start;line-height:125%;writing-mode:lr-tb;text-anchor:start;fill:#000;fill-opacity:1;stroke:none;font-family:Droid Serif;-inkscape-font-specification:Droid Serif"><tspan id="tspan2897-6" x="265" y="72.362">Limbo</tspan></text><text id="text5075-5-2" x="400" y="72.362" xml:space="preserve" style="font-size:16px;font-style:normal;font-variant:normal;font-weight:400;font-stretch:normal;text-align:start;line-height:125%;writing-mode:lr-tb;text-anchor:start;fill:#000;fill-opacity:1;stroke:none;font-family:Droid Serif;-inkscape-font-specification:Droid Serif"><tspan id="tspan2897-6-7" x="400" y="72.362">Go</tspan></text><text id="text5075-5-0" x="95" y="72.362" xml:space="preserve" style="font-size:16px;font-style:normal;font-variant:normal;font-weight:400;font-stretch:normal;text-align:start;line-height:125%;writing-mode:lr-tb;text-anchor:start;fill:#000;fill-opacity:1;stroke:none;font-family:Droid Serif;-inkscape-font-specification:Droid Serif"><tspan id="tspan2897-6-9" x="95" y="72.362">Erlang</tspan></text><flowRoot style="fill:#000;stroke:none;stroke-opacity:1;stroke-width:1px;stroke-linejoin:miter;stroke-linecap:butt;fill-opacity:1;font-family:Bitstream Vera Sans;font-style:normal;font-weight:400;font-size:40px" id="flowRoot2903" xml:space="preserve"><flowRegion id="flowRegion2905"><rect id="rect2907" width="465.357" height="56.071" x="30.714" y="14.505"/></flowRegion><flowPara id="flowPara2909"/></flowRoot><text id="text5075-59" x="165" y="52.362" xml:space="preserve" style="font-size:16px;font-style:normal;font-variant:normal;font-weight:400;font-stretch:normal;text-align:start;line-height:125%;writing-mode:lr-tb;text-anchor:start;fill:#000;fill-opacity:1;stroke:none;font-family:Droid Serif;-inkscape-font-specification:Droid Serif"><tspan style="font-size:14px" id="tspan2897-7" x="165" y="52.362">1989</tspan></text><text id="text5075-59-8" x="265" y="52.362" xml:space="preserve" style="font-size:16px;font-style:normal;font-variant:normal;font-weight:400;font-stretch:normal;text-align:start;line-height:125%;writing-mode:lr-tb;text-anchor:start;fill:#000;fill-opacity:1;stroke:none;font-family:Droid Serif;-inkscape-font-specification:Droid Serif"><tspan style="font-size:14px" id="tspan2897-7-1" x="265" y="52.362">1995</tspan></text><path id="path2982" d="m 185,17.362183 c 0,20 0,20 0,20" style="fill:none;stroke:#000;stroke-width:1px;stroke-linecap:butt;stroke-linejoin:miter;stroke-opacity:1"/><path id="path2982-6" d="m 270,17.362183 c 0,20 0,20 0,20" style="fill:none;stroke:#000;stroke-width:1px;stroke-linecap:butt;stroke-linejoin:miter;stroke-opacity:1"/><path id="path2982-5" d="m 120,17.362183 c 0,20.000001 0,20.000001 0,20.000001" style="fill:none;stroke:#000;stroke-width:1px;stroke-linecap:butt;stroke-linejoin:miter;stroke-opacity:1"/><text id="text5075-59-6" x="100" y="52.362" xml:space="preserve" style="font-size:16px;font-style:normal;font-variant:normal;font-weight:400;font-stretch:normal;text-align:start;line-height:125%;writing-mode:lr-tb;text-anchor:start;fill:#000;fill-opacity:1;stroke:none;font-family:Droid Serif;-inkscape-font-specification:Droid Serif"><tspan style="font-size:14px" id="tspan2897-7-11" x="100" y="52.362">1986</tspan></text><path id="path2982-5-9" d="m 415,17.362181 c 0,20.000002 0,20.000002 0,20.000002" style="fill:none;stroke:#000;stroke-width:1px;stroke-linecap:butt;stroke-linejoin:miter;stroke-opacity:1"/><text id="text5075-59-8-8" x="395" y="52.362" xml:space="preserve" style="font-size:16px;font-style:normal;font-variant:normal;font-weight:400;font-stretch:normal;text-align:start;line-height:125%;writing-mode:lr-tb;text-anchor:start;fill:#000;fill-opacity:1;stroke:none;font-family:Droid Serif;-inkscape-font-specification:Droid Serif"><tspan style="font-size:14px" id="tspan2897-7-1-4" x="395" y="52.362">2009</tspan></text><path id="path3693" d="m 90,17.362183 0,20" style="fill:none;stroke:#fff;stroke-width:2.72554064px;stroke-linecap:butt;stroke-linejoin:miter;stroke-opacity:1"/><path id="path3693-1" d="m 60,17.362183 0,20" style="fill:none;stroke:#fff;stroke-width:2.72554064px;stroke-linecap:butt;stroke-linejoin:miter;stroke-opacity:1"/><path id="path3693-11" d="m 65,17.362183 0,20" style="fill:none;stroke:#fff;stroke-width:2.72554064px;stroke-linecap:butt;stroke-linejoin:miter;stroke-opacity:1"/><path id="path3693-7" d="m 70,17.362183 0,20" style="fill:none;stroke:#fff;stroke-width:2.72554064px;stroke-linecap:butt;stroke-linejoin:miter;stroke-opacity:1"/><path id="path3693-6" d="m 75,17.362183 0,20" style="fill:none;stroke:#fff;stroke-width:2.72554064px;stroke-linecap:butt;stroke-linejoin:miter;stroke-opacity:1"/><path id="path3693-9" d="m 85,17.362183 0,20" style="fill:none;stroke:#fff;stroke-width:2.72554064px;stroke-linecap:butt;stroke-linejoin:miter;stroke-opacity:1"/><path id="path3693-8" d="m 80,17.362183 0,20" style="fill:none;stroke:#fff;stroke-width:2.72554064px;stroke-linecap:butt;stroke-linejoin:miter;stroke-opacity:1"/></g></svg>