<svg xmlns="http://www.w3.org/2000/svg" xmlns:svg="http://www.w3.org/2000/svg" id="svg2" width="744.094" height="1052.362" version="1.1"><defs id="defs4"><marker style="overflow:visible" id="Arrow1Lstart" orient="auto" refX="0" refY="0"><path style="fill-rule:evenodd;stroke:#000;stroke-width:1pt;marker-start:none" id="path4056" d="M 0.0,0.0 L 5.0,-5.0 L -12.5,0.0 L 5.0,5.0 L 0.0,0.0 z" transform="scale(0.8) translate(12.5,0)"/></marker><marker style="overflow:visible" id="Arrow2Send" orient="auto" refX="0" refY="0"><path style="font-size:12;fill-rule:evenodd;stroke-width:.625;stroke-linejoin:round" id="path3716" d="M 8.7185878,4.0337352 L -2.2072895,0.016013256 L 8.7185884,-4.0017078 C 6.9730900,-1.6296469 6.9831476,1.6157441 8.7185878,4.0337352 z" transform="scale(0.3) rotate(180) translate(-2.3,0)"/></marker><marker style="overflow:visible" id="Arrow2Lend" orient="auto" refX="0" refY="0"><path style="font-size:12;fill-rule:evenodd;stroke-width:.625;stroke-linejoin:round" id="path3704" d="M 8.7185878,4.0337352 L -2.2072895,0.016013256 L 8.7185884,-4.0017078 C 6.9730900,-1.6296469 6.9831476,1.6157441 8.7185878,4.0337352 z" transform="scale(1.1) rotate(180) translate(1,0)"/></marker><marker style="overflow:visible" id="Arrow1Mend" orient="auto" refX="0" refY="0"><path style="fill-rule:evenodd;stroke:#000;stroke-width:1pt;marker-start:none" id="path3713" d="M 0.0,0.0 L 5.0,-5.0 L -12.5,0.0 L 5.0,5.0 L 0.0,0.0 z" transform="scale(0.4) rotate(180) translate(10,0)"/></marker><marker style="overflow:visible" id="Arrow1Lend" orient="auto" refX="0" refY="0"><path style="fill-rule:evenodd;stroke:#000;stroke-width:1pt;marker-start:none" id="path3707" d="M 0.0,0.0 L 5.0,-5.0 L -12.5,0.0 L 5.0,5.0 L 0.0,0.0 z" transform="scale(0.8) rotate(180) translate(12.5,0)"/></marker><marker style="overflow:visible" id="Arrow1Mend-2" orient="auto" refX="0" refY="0"><path style="fill-rule:evenodd;stroke:#000;stroke-width:1pt;marker-start:none" id="path3713-9" d="M 0,0 5,-5 -12.5,0 5,5 0,0 z" transform="matrix(-0.4,0,0,-0.4,-4,0)"/></marker><marker style="overflow:visible" id="Arrow1Mend-1" orient="auto" refX="0" refY="0"><path style="fill-rule:evenodd;stroke:#000;stroke-width:1pt;marker-start:none" id="path3713-1" d="M 0,0 5,-5 -12.5,0 5,5 0,0 z" transform="matrix(-0.4,0,0,-0.4,-4,0)"/></marker><marker style="overflow:visible" id="Arrow1Mend-3" orient="auto" refX="0" refY="0"><path style="fill-rule:evenodd;stroke:#000;stroke-width:1pt;marker-start:none" id="path3713-6" d="M 0,0 5,-5 -12.5,0 5,5 0,0 z" transform="matrix(-0.4,0,0,-0.4,-4,0)"/></marker><marker style="overflow:visible" id="Arrow1Mend-21" orient="auto" refX="0" refY="0"><path style="fill-rule:evenodd;stroke:#000;stroke-width:1pt;marker-start:none" id="path3713-0" d="M 0,0 5,-5 -12.5,0 5,5 0,0 z" transform="matrix(-0.4,0,0,-0.4,-4,0)"/></marker><marker style="overflow:visible" id="Arrow1Mend-28" orient="auto" refX="0" refY="0"><path style="fill-rule:evenodd;stroke:#000;stroke-width:1pt;marker-start:none" id="path3713-4" d="M 0,0 5,-5 -12.5,0 5,5 0,0 z" transform="matrix(-0.4,0,0,-0.4,-4,0)"/></marker><marker style="overflow:visible" id="Arrow1Mend-28-6" orient="auto" refX="0" refY="0"><path style="fill-rule:evenodd;stroke:#000;stroke-width:1pt;marker-start:none" id="path3713-4-6" d="M 0,0 5,-5 -12.5,0 5,5 0,0 z" transform="matrix(-0.4,0,0,-0.4,-4,0)"/></marker><marker style="overflow:visible" id="Arrow1Mend-28-7" orient="auto" refX="0" refY="0"><path style="fill-rule:evenodd;stroke:#000;stroke-width:1pt;marker-start:none" id="path3713-4-1" d="M 0,0 5,-5 -12.5,0 5,5 0,0 z" transform="matrix(-0.4,0,0,-0.4,-4,0)"/></marker><marker style="overflow:visible" id="Arrow1Mend-28-9" orient="auto" refX="0" refY="0"><path style="fill-rule:evenodd;stroke:#000;stroke-width:1pt;marker-start:none" id="path3713-4-4" d="M 0,0 5,-5 -12.5,0 5,5 0,0 z" transform="matrix(-0.4,0,0,-0.4,-4,0)"/></marker></defs><metadata id="metadata7"/><g id="layer1"><rect id="rect2822" width="58.571" height="40" x="88.571" y="106.648" ry="11.429" style="fill:none"/><rect id="rect2824" width="31.429" height="37.143" x="85.714" y="103.791" ry="11.429" style="fill:none"/><rect id="rect2826" width="38.571" height="31.429" x="68.571" y="42.362" ry="11.429" style="fill:none"/><rect id="rect3604" width="180" height="165.714" x="10" y="7.362" ry="0" style="fill:none;stroke:#000;stroke-width:1.02027023;stroke-miterlimit:4;stroke-opacity:1;stroke-dasharray:none"/><rect id="rect2826-8" width="38.571" height="31.429" x="120.964" y="76.898" ry="11.429" style="fill:none"/><rect id="rect3604-5" width="150" height="120.714" x="15" y="46.648" ry="0" style="fill:none;stroke:#000;stroke-width:1;stroke-miterlimit:4;stroke-opacity:1;stroke-dasharray:none"/><rect id="rect2826-85" width="38.571" height="31.429" x="192.393" y="74.041" ry="11.429" style="fill:none"/><rect id="rect3604-61" width="120" height="85.714" x="20" y="76.648" ry="0" style="fill:none;stroke:#000;stroke-width:1;stroke-miterlimit:4;stroke-opacity:1;stroke-dasharray:none"/><path id="path2894-3-5" d="m 125,137.36218 c 72,0 90,0 90,0" style="fill:none;stroke:#000;stroke-width:.94868332;stroke-linecap:butt;stroke-linejoin:miter;stroke-miterlimit:4;stroke-opacity:1;stroke-dasharray:none;marker-start:none;marker-end:url(#Arrow1Mend)"/><text id="text5075-68" x="15" y="27.362" xml:space="preserve" style="font-size:16px;font-style:normal;font-variant:normal;font-weight:400;font-stretch:normal;text-align:start;line-height:125%;writing-mode:lr-tb;text-anchor:start;fill:#000;fill-opacity:1;stroke:none;font-family:DejaVu Sans Mono;-inkscape-font-specification:DejaVu Sans Mono"><tspan id="tspan5077-9" x="15" y="27.362">reflect.Ptr</tspan></text><path id="path3745" d="m 10,42.36218 180,0" style="fill:none;stroke:#000;stroke-width:1px;stroke-linecap:butt;stroke-linejoin:miter;stroke-opacity:1"/><path id="path3753" d="m 190,22.36218 c 0,0 29.21429,-5.64285 31,12.000001 -1,18.000002 -51,18.000002 -51,18.000002" style="fill:none;stroke:#000;stroke-width:1px;stroke-linecap:butt;stroke-linejoin:miter;stroke-opacity:1;marker-end:url(#Arrow1Mend-28)"/><text id="text5075-9" x="225" y="42.362" xml:space="preserve" style="font-size:16px;font-style:normal;font-variant:normal;font-weight:400;font-stretch:normal;text-align:start;line-height:125%;writing-mode:lr-tb;text-anchor:start;fill:#000;fill-opacity:1;stroke:none;font-family:DejaVu Sans Mono;-inkscape-font-specification:DejaVu Sans Mono"><tspan id="tspan5077-28" x="225" y="42.362">.Elem()</tspan></text><path id="path3745-4" d="m 15,72.36218 150,0" style="fill:none;stroke:#000;stroke-width:.91287094px;stroke-linecap:butt;stroke-linejoin:miter;stroke-opacity:1"/><text id="text5075-68-9" x="25" y="62.362" xml:space="preserve" style="font-size:16px;font-style:normal;font-variant:normal;font-weight:400;font-stretch:normal;text-align:start;line-height:125%;writing-mode:lr-tb;text-anchor:start;fill:#000;fill-opacity:1;stroke:none;font-family:DejaVu Sans Mono;-inkscape-font-specification:DejaVu Sans Mono"><tspan id="tspan5077-9-2" x="25" y="62.362">reflect.Value</tspan></text><path id="path3753-4" d="m 164,60.36218 c 0,0 29.21429,-5.642857 31,12.000003 -1,18.000004 -51,18.000004 -51,18.000004" style="fill:none;stroke:#000;stroke-width:1.05409265;stroke-linecap:butt;stroke-linejoin:miter;stroke-miterlimit:4;stroke-opacity:1;stroke-dasharray:none;marker-end:url(#Arrow1Mend-28)"/><text id="text5075-9-9" x="200" y="77.362" xml:space="preserve" style="font-size:16px;font-style:normal;font-variant:normal;font-weight:400;font-stretch:normal;text-align:start;line-height:125%;writing-mode:lr-tb;text-anchor:start;fill:#000;fill-opacity:1;stroke:none;font-family:DejaVu Sans Mono;-inkscape-font-specification:DejaVu Sans Mono"><tspan id="tspan5077-28-5" x="200" y="77.362">.Field(0)</tspan></text><path id="path3745-4-0" d="m 20,97.36218 120,0" style="fill:none;stroke:#000;stroke-width:.81649661px;stroke-linecap:butt;stroke-linejoin:miter;stroke-opacity:1"/><text id="text5075-9-9-4" x="20" y="87.362" xml:space="preserve" style="font-size:10px;font-style:normal;font-variant:normal;font-weight:400;font-stretch:normal;text-align:start;line-height:125%;writing-mode:lr-tb;text-anchor:start;fill:#000;fill-opacity:1;stroke:none;font-family:DejaVu Sans Mono;-inkscape-font-specification:DejaVu Sans Mono"><tspan id="tspan5077-28-5-8" x="20" y="87.362">reflect.StructField</tspan></text><path id="path3753-4-7-9" d="m 150.29796,97.362183 c 0,0 36.9531,-5.642861 39.21185,11.999997 -1.26489,18 -64.50981,18 -64.50981,18" style="fill:none;stroke:#000;stroke-width:1.52514768;stroke-linecap:butt;stroke-linejoin:miter;stroke-miterlimit:4;stroke-opacity:1;stroke-dasharray:none;marker-end:url(#Arrow1Mend-28)"/><text id="text5075-9-9-2-7" x="200" y="107.362" xml:space="preserve" style="font-size:12px;font-style:normal;font-variant:normal;font-weight:400;font-stretch:normal;text-align:start;line-height:125%;writing-mode:lr-tb;text-anchor:start;fill:#000;fill-opacity:1;stroke:none;font-family:DejaVu Sans Mono;-inkscape-font-specification:DejaVu Sans Mono"><tspan id="tspan5077-28-5-7-1" x="200" y="107.362">.String()</tspan></text><rect id="rect3604-61-6-7" width="90" height="30" x="30" y="107.362" ry="0" style="fill:none;stroke:#000;stroke-width:.51234764;stroke-miterlimit:4;stroke-opacity:1;stroke-dasharray:none"/><text id="text5075-9-9-2-7-6-3" x="220" y="142.362" xml:space="preserve" style="font-size:12px;font-style:normal;font-variant:normal;font-weight:400;font-stretch:normal;text-align:start;line-height:125%;writing-mode:lr-tb;text-anchor:start;fill:#000;fill-opacity:1;stroke:none;font-family:Droid Serif;-inkscape-font-specification:Droid Serif"><tspan id="tspan5077-28-5-7-1-7-6" x="220" y="142.362">&quot;Albert Einstein&quot;</tspan></text><text id="text5075-9-9-2-7-6-3-8" x="40" y="127.362" xml:space="preserve" style="font-size:9px;font-style:normal;font-variant:normal;font-weight:400;font-stretch:normal;text-align:start;line-height:125%;writing-mode:lr-tb;text-anchor:start;fill:#000;fill-opacity:1;stroke:none;font-family:Droid Serif;-inkscape-font-specification:Droid Serif"><tspan id="tspan5077-28-5-7-1-7-6-4" x="40" y="127.362">&quot;Albert Einstein&quot;</tspan></text></g></svg>